<svg width="100" height="100" viewBox="0 0 100 100" fill="none" xmlns="http://www.w3.org/2000/svg">
<g clip-path="url(#clip0_14_244)">
<path d="M50 100C77.6142 100 100 77.6142 100 50C100 22.3858 77.6142 0 50 0C22.3858 0 0 22.3858 0 50C0 77.6142 22.3858 100 50 100Z" fill="#6563FF"/>
<path d="M72.7344 32.9492C72.7344 32.9492 66.2305 27.8516 58.5352 27.2656L57.8516 28.6523C64.8047 30.3516 67.9883 32.793 71.3281 35.7812C65.5859 32.8516 59.9023 30.0977 50.0195 30.0977C40.1367 30.0977 34.4531 32.8516 28.7109 35.7812C32.0508 32.793 35.8398 30.0781 42.1875 28.6523L41.5039 27.2656C33.4375 28.0273 27.3047 32.9492 27.3047 32.9492C27.3047 32.9492 20.0391 43.4961 18.7891 64.1992C26.1133 72.6563 37.2461 72.7148 37.2461 72.7148L39.5703 69.6094C35.625 68.2422 31.1523 65.7813 27.3047 61.3477C31.8945 64.8242 38.8477 68.457 50.0391 68.457C61.2305 68.457 68.1641 64.8438 72.7734 61.3477C68.9258 65.7813 64.4531 68.2422 60.5078 69.6094L62.832 72.7148C62.832 72.7148 73.9648 72.6563 81.2891 64.1992C80 43.4961 72.7344 32.9492 72.7344 32.9492ZM40.7617 58.5156C38.0078 58.5156 35.7812 55.9766 35.7812 52.832C35.7812 49.6875 38.0078 47.1484 40.7617 47.1484C43.5156 47.1484 45.7422 49.6875 45.7422 52.832C45.7422 55.9766 43.5156 58.5156 40.7617 58.5156ZM59.2383 58.5156C56.4844 58.5156 54.2578 55.9766 54.2578 52.832C54.2578 49.6875 56.4844 47.1484 59.2383 47.1484C61.9922 47.1484 64.2188 49.6875 64.2188 52.832C64.2188 55.9766 61.9727 58.5156 59.2383 58.5156Z" fill="white"/>
</g>
<defs>
<clipPath id="clip0_14_244">
<rect width="100" height="100" fill="white"/>
</clipPath>
</defs>
</svg>
