<svg width="100" height="100" viewBox="0 0 100 100" fill="none" xmlns="http://www.w3.org/2000/svg">
<g clip-path="url(#clip0_14_238)">
<path d="M50 100C22.39 100 0 77.61 0 50C0 22.39 22.39 0 50 0C77.61 0 100 22.39 100 50C100 77.61 77.61 100 50 100Z" fill="url(#paint0_linear_14_238)"/>
<path d="M49.9999 22.0201C59.1099 22.0201 60.1899 22.0501 63.7899 22.2201C67.1199 22.3701 68.9299 22.9301 70.1299 23.4001C71.7199 24.0201 72.8599 24.7601 74.0499 25.9501C75.2399 27.1401 75.9799 28.2801 76.5999 29.8701C77.0699 31.0701 77.6199 32.8801 77.7799 36.2101C77.9399 39.8101 77.9799 40.8901 77.9799 50.0001C77.9799 59.1101 77.9499 60.1901 77.7799 63.7901C77.6299 67.1201 77.0699 68.9301 76.5999 70.1301C75.9799 71.7201 75.2399 72.8601 74.0499 74.0501C72.8599 75.2401 71.7199 75.9801 70.1299 76.6001C68.9299 77.0701 67.1199 77.6201 63.7899 77.7801C60.1899 77.9401 59.1099 77.9801 49.9999 77.9801C40.8899 77.9801 39.8099 77.9501 36.2099 77.7801C32.8799 77.6301 31.0699 77.0701 29.8699 76.6001C28.2799 75.9801 27.1399 75.2401 25.9499 74.0501C24.7599 72.8601 24.0199 71.7201 23.3999 70.1301C22.9299 68.9301 22.3799 67.1201 22.2199 63.7901C22.0599 60.1901 22.0199 59.1101 22.0199 50.0001C22.0199 40.8901 22.0499 39.8101 22.2199 36.2101C22.3699 32.8801 22.9299 31.0701 23.3999 29.8701C24.0199 28.2801 24.7599 27.1401 25.9499 25.9501C27.1399 24.7601 28.2799 24.0201 29.8699 23.4001C31.0699 22.9301 32.8799 22.3801 36.2099 22.2201C39.8099 22.0501 40.8899 22.0201 49.9999 22.0201ZM49.9999 15.8701C40.7299 15.8701 39.5699 15.9101 35.9299 16.0801C32.2999 16.2501 29.8199 16.8201 27.6399 17.6701C25.3999 18.5301 23.4899 19.7001 21.5999 21.6001C19.6999 23.5001 18.5399 25.4001 17.6599 27.6501C16.8199 29.8201 16.2399 32.3001 16.0699 35.9401C15.8999 39.5801 15.8599 40.7401 15.8599 50.0101C15.8599 59.2801 15.8999 60.4401 16.0699 64.0801C16.2399 67.7101 16.8099 70.1901 17.6599 72.3701C18.5299 74.6001 19.6999 76.5101 21.5999 78.4001C23.4999 80.3001 25.3999 81.4601 27.6499 82.3401C29.8199 83.1801 32.2999 83.7601 35.9399 83.9301C39.5799 84.1001 40.7399 84.1401 50.0099 84.1401C59.2799 84.1401 60.4399 84.1001 64.0799 83.9301C67.7099 83.7601 70.1899 83.1901 72.3699 82.3401C74.5999 81.4701 76.5099 80.3001 78.3999 78.4001C80.2999 76.5001 81.4599 74.6001 82.3399 72.3501C83.1799 70.1801 83.7599 67.7001 83.9299 64.0601C84.0999 60.4201 84.1399 59.2601 84.1399 49.9901C84.1399 40.7201 84.0999 39.5601 83.9299 35.9201C83.7599 32.2901 83.1899 29.8101 82.3399 27.6301C81.4699 25.4001 80.2999 23.4901 78.3999 21.6001C76.4999 19.7001 74.5999 18.5401 72.3499 17.6601C70.1799 16.8201 67.6999 16.2401 64.0599 16.0701C60.4299 15.9101 59.2699 15.8701 49.9999 15.8701Z" fill="white"/>
<path d="M49.9997 32.4702C40.3197 32.4702 32.4697 40.3202 32.4697 50.0002C32.4697 59.6802 40.3197 67.5302 49.9997 67.5302C59.6797 67.5302 67.5297 59.6802 67.5297 50.0002C67.5297 40.3202 59.6797 32.4702 49.9997 32.4702ZM49.9997 61.3802C43.7197 61.3802 38.6197 56.2902 38.6197 50.0002C38.6197 43.7102 43.7197 38.6202 49.9997 38.6202C56.2797 38.6202 61.3797 43.7102 61.3797 50.0002C61.3797 56.2902 56.2797 61.3802 49.9997 61.3802Z" fill="white"/>
<path d="M68.2196 35.8802C70.484 35.8802 72.3196 34.0445 72.3196 31.7802C72.3196 29.5158 70.484 27.6802 68.2196 27.6802C65.9553 27.6802 64.1196 29.5158 64.1196 31.7802C64.1196 34.0445 65.9553 35.8802 68.2196 35.8802Z" fill="white"/>
</g>
<defs>
<linearGradient id="paint0_linear_14_238" x1="14.6446" y1="85.3553" x2="85.3553" y2="14.6446" gradientUnits="userSpaceOnUse">
<stop stop-color="#FFD521"/>
<stop offset="0.0551048" stop-color="#FFD020"/>
<stop offset="0.1241" stop-color="#FEC01E"/>
<stop offset="0.2004" stop-color="#FCA71B"/>
<stop offset="0.2821" stop-color="#FA8316"/>
<stop offset="0.3681" stop-color="#F85510"/>
<stop offset="0.4563" stop-color="#F51E09"/>
<stop offset="0.5" stop-color="#F30005"/>
<stop offset="0.5035" stop-color="#F20007"/>
<stop offset="0.5966" stop-color="#E1003B"/>
<stop offset="0.6879" stop-color="#D30067"/>
<stop offset="0.7757" stop-color="#C70088"/>
<stop offset="0.8589" stop-color="#BF00A0"/>
<stop offset="0.9357" stop-color="#BB00AF"/>
<stop offset="1" stop-color="#B900B4"/>
</linearGradient>
<clipPath id="clip0_14_238">
<rect width="100" height="100" fill="white"/>
</clipPath>
</defs>
</svg>
