<svg width="100" height="100" viewBox="0 0 100 100" fill="none" xmlns="http://www.w3.org/2000/svg">
<path d="M50 100C77.6142 100 100 77.6142 100 50C100 22.3858 77.6142 0 50 0C22.3858 0 0 22.3858 0 50C0 77.6142 22.3858 100 50 100Z" fill="url(#paint0_linear_14_224)"/>
<path d="M74.3361 28.7693L65.4103 73.7889C65.4103 73.7889 64.1603 76.9139 60.7228 75.41L40.1173 59.6092L32.6173 55.9959L20.0002 51.7576C20.0002 51.7576 18.0666 51.074 17.8712 49.5701C17.6759 48.0662 20.0587 47.2654 20.0587 47.2654L70.215 27.5975C70.215 27.5779 74.3361 25.7615 74.3361 28.7693Z" fill="white"/>
<path d="M38.5161 73.2815C38.5161 73.2815 37.9106 73.2229 37.1685 70.8596C36.4263 68.4963 32.6177 55.9963 32.6177 55.9963L62.9106 36.7581C62.9106 36.7581 64.6685 35.7034 64.5903 36.7581C64.5903 36.7581 64.9028 36.9534 63.9653 37.8127C63.0278 38.6917 40.1763 59.2385 40.1763 59.2385" fill="#D2E4F0"/>
<path d="M48.0083 65.6643L39.8638 73.1057C39.8638 73.1057 39.2192 73.594 38.5356 73.2815L40.0981 59.4729" fill="#B5CFE4"/>
<defs>
<linearGradient id="paint0_linear_14_224" x1="50" y1="0" x2="50" y2="99.6352" gradientUnits="userSpaceOnUse">
<stop stop-color="#41BCE7"/>
<stop offset="1" stop-color="#22A6DC"/>
</linearGradient>
</defs>
</svg>
